<?xml version="1.0" encoding="UTF-8"?>
<svg xmlns="http://www.w3.org/2000/svg" width="256" height="256" viewBox="0 0 256 256">
  <rect width="256" height="256" fill="#fff"/>
  <!-- Simple stylized QR-like pattern for demo purposes only -->
  <g fill="#000">
    <!-- Finder patterns -->
    <rect x="16" y="16" width="64" height="64"/>
    <rect x="24" y="24" width="48" height="48" fill="#fff"/>
    <rect x="32" y="32" width="32" height="32"/>

    <rect x="176" y="16" width="64" height="64"/>
    <rect x="184" y="24" width="48" height="48" fill="#fff"/>
    <rect x="192" y="32" width="32" height="32"/>

    <rect x="16" y="176" width="64" height="64"/>
    <rect x="24" y="184" width="48" height="48" fill="#fff"/>
    <rect x="32" y="192" width="32" height="32"/>

    <!-- Random modules to resemble QR -->
    <rect x="112" y="24" width="16" height="16"/>
    <rect x="136" y="24" width="16" height="16"/>
    <rect x="112" y="48" width="16" height="16"/>
    <rect x="136" y="48" width="16" height="16"/>

    <rect x="96" y="96" width="16" height="16"/>
    <rect x="120" y="96" width="16" height="16"/>
    <rect x="144" y="96" width="16" height="16"/>
    <rect x="168" y="96" width="16" height="16"/>

    <rect x="96" y="120" width="16" height="16"/>
    <rect x="144" y="120" width="16" height="16"/>
    <rect x="168" y="120" width="16" height="16"/>

    <rect x="96" y="144" width="16" height="16"/>
    <rect x="120" y="144" width="16" height="16"/>
    <rect x="168" y="144" width="16" height="16"/>

    <rect x="200" y="160" width="16" height="16"/>
    <rect x="176" y="176" width="16" height="16"/>
    <rect x="200" y="184" width="16" height="16"/>
    <rect x="224" y="200" width="16" height="16"/>
  </g>
  <text x="50%" y="246" text-anchor="middle" font-size="12" fill="#666" font-family="system-ui, -apple-system, Segoe UI, Roboto, Helvetica, Arial">
    Demo QR — directs to /demo
  </text>
</svg>
